<?xml version="1.0" encoding="UTF-8" standalone="no"?>
<!DOCTYPE svg PUBLIC "-//W3C//DTD SVG 1.1//EN" "http://www.w3.org/Graphics/SVG/1.1/DTD/svg11.dtd">
<svg version="1.1" xmlns="http://www.w3.org/2000/svg" xmlns:xlink="http://www.w3.org/1999/xlink" preserveAspectRatio="xMidYMid meet" viewBox="0 0 1920 1080" width="1920" height="1080">
  <defs>
    <path d="M375.48 1080L15.97 1080L15.97 109.97L375.48 109.97L375.48 109.97L375.48 1080Z" id="a1QbnaxYSM"></path>
    <path d="M784.22 109.97L1143.73 109.97L1143.73 1080L784.22 1080L784.22 109.97Z" id="bPsKdGxWH"></path>
    <path d="M1163.14 109.97L1522.65 109.97L1522.65 1080L1163.14 1080L1163.14 109.97Z" id="efnigr5Lo"></path>
    <path d="M395.46 109.97L754.97 109.97L754.97 1080L395.46 1080L395.46 109.97Z" id="a1eG49RYRo"></path>
    <path d="M1544.52 109.97L1904.03 109.97L1904.03 1080L1544.52 1080L1544.52 109.97Z" id="asQXIiV94"></path>
    <path d="M17.38 14.25L376.89 14.25L376.89 98.43L17.38 98.43L17.38 14.25Z" id="b2LGujqYPf"></path>
    <path d="M395.46 14.25L754.97 14.25L754.97 98.43L395.46 98.43L395.46 14.25Z" id="iK7y8KIMG"></path>
    <path d="M784.22 14.25L1143.73 14.25L1143.73 98.43L784.22 98.43L784.22 14.25Z" id="b5MTx3d2J"></path>
    <path d="M1161.73 14.25L1521.24 14.25L1521.24 98.43L1161.73 98.43L1161.73 14.25Z" id="a2DWjXYvLj"></path>
    <path d="M1544.52 14.25L1904.03 14.25L1904.03 98.43L1544.52 98.43L1544.52 14.25Z" id="b6ajXBYNqP"></path>
    <path
      d="M155.57 161.68C164.89 161.68 172.45 169.24 172.45 178.56C172.45 193.28 172.45 220.57 172.45 235.29C172.45 244.61 164.89 252.16 155.57 252.16C129.73 252.16 69.07 252.16 43.22 252.16C33.91 252.16 26.35 244.61 26.35 235.29C26.35 220.57 26.35 193.28 26.35 178.56C26.35 169.24 33.91 161.68 43.22 161.68C69.07 161.68 129.73 161.68 155.57 161.68Z"
      id="gb6uh7x8"></path>
    <path
      d="M343.81 161.68C353.13 161.68 360.69 169.24 360.69 178.56C360.69 193.28 360.69 220.57 360.69 235.29C360.69 244.61 353.13 252.16 343.81 252.16C317.97 252.16 257.31 252.16 231.46 252.16C222.14 252.16 214.59 244.61 214.59 235.29C214.59 220.57 214.59 193.28 214.59 178.56C214.59 169.24 222.14 161.68 231.46 161.68C257.31 161.68 317.97 161.68 343.81 161.68Z"
      id="e3PqIveGA"></path>
    <path
      d="M543.81 161.68C553.13 161.68 560.69 169.24 560.69 178.56C560.69 193.28 560.69 220.57 560.69 235.29C560.69 244.61 553.13 252.16 543.81 252.16C517.97 252.16 457.31 252.16 431.46 252.16C422.14 252.16 414.59 244.61 414.59 235.29C414.59 220.57 414.59 193.28 414.59 178.56C414.59 169.24 422.14 161.68 431.46 161.68C457.31 161.68 517.97 161.68 543.81 161.68Z"
      id="hQ1ywzgmP"></path>
    <path
      d="M730.64 161.68C739.96 161.68 747.52 169.24 747.52 178.56C747.52 193.28 747.52 220.57 747.52 235.29C747.52 244.61 739.96 252.16 730.64 252.16C704.8 252.16 644.14 252.16 618.3 252.16C608.98 252.16 601.42 244.61 601.42 235.29C601.42 220.57 601.42 193.28 601.42 178.56C601.42 169.24 608.98 161.68 618.3 161.68C644.14 161.68 704.8 161.68 730.64 161.68Z"
      id="a1r8QY4m4I"></path>
    <path
      d="M155.57 313.77C164.89 313.77 172.45 321.33 172.45 330.65C172.45 345.37 172.45 372.65 172.45 387.37C172.45 396.69 164.89 404.25 155.57 404.25C129.73 404.25 69.07 404.25 43.22 404.25C33.91 404.25 26.35 396.69 26.35 387.37C26.35 372.65 26.35 345.37 26.35 330.65C26.35 321.33 33.91 313.77 43.22 313.77C69.07 313.77 129.73 313.77 155.57 313.77Z"
      id="a11yJ9QPG"></path>
    <path
      d="M343.81 315.18C353.13 315.18 360.69 322.73 360.69 332.05C360.69 346.77 360.69 374.06 360.69 388.78C360.69 398.1 353.13 405.66 343.81 405.66C317.97 405.66 257.31 405.66 231.46 405.66C222.14 405.66 214.59 398.1 214.59 388.78C214.59 374.06 214.59 346.77 214.59 332.05C214.59 322.73 222.14 315.18 231.46 315.18C257.31 315.18 317.97 315.18 343.81 315.18Z"
      id="bnFMeUqLt"></path>
    <path
      d="M543.81 313.77C553.13 313.77 560.69 321.33 560.69 330.65C560.69 345.37 560.69 372.65 560.69 387.37C560.69 396.69 553.13 404.25 543.81 404.25C517.97 404.25 457.31 404.25 431.46 404.25C422.14 404.25 414.59 396.69 414.59 387.37C414.59 372.65 414.59 345.37 414.59 330.65C414.59 321.33 422.14 313.77 431.46 313.77C457.31 313.77 517.97 313.77 543.81 313.77Z"
      id="c17YepB3oi"></path>
    <path
      d="M730.64 313.77C739.96 313.77 747.52 321.33 747.52 330.65C747.52 345.37 747.52 372.65 747.52 387.37C747.52 396.69 739.96 404.25 730.64 404.25C704.8 404.25 644.14 404.25 618.3 404.25C608.98 404.25 601.42 396.69 601.42 387.37C601.42 372.65 601.42 345.37 601.42 330.65C601.42 321.33 608.98 313.77 618.3 313.77C644.14 313.77 704.8 313.77 730.64 313.77Z"
      id="b5iwALQyJY"></path>
    <path
      d="M155.57 463.04C164.89 463.04 172.45 470.6 172.45 479.92C172.45 494.64 172.45 521.92 172.45 536.64C172.45 545.96 164.89 553.52 155.57 553.52C129.73 553.52 69.07 553.52 43.22 553.52C33.91 553.52 26.35 545.96 26.35 536.64C26.35 521.92 26.35 494.64 26.35 479.92C26.35 470.6 33.91 463.04 43.22 463.04C69.07 463.04 129.73 463.04 155.57 463.04Z"
      id="a18un7aEEo"></path>
    <path
      d="M343.81 463.04C353.13 463.04 360.69 470.6 360.69 479.92C360.69 494.64 360.69 521.92 360.69 536.64C360.69 545.96 353.13 553.52 343.81 553.52C317.97 553.52 257.31 553.52 231.46 553.52C222.14 553.52 214.59 545.96 214.59 536.64C214.59 521.92 214.59 494.64 214.59 479.92C214.59 470.6 222.14 463.04 231.46 463.04C257.31 463.04 317.97 463.04 343.81 463.04Z"
      id="anuKibB0G"></path>
    <path
      d="M543.81 463.04C553.13 463.04 560.69 470.6 560.69 479.92C560.69 494.64 560.69 521.92 560.69 536.64C560.69 545.96 553.13 553.52 543.81 553.52C517.97 553.52 457.31 553.52 431.46 553.52C422.14 553.52 414.59 545.96 414.59 536.64C414.59 521.92 414.59 494.64 414.59 479.92C414.59 470.6 422.14 463.04 431.46 463.04C457.31 463.04 517.97 463.04 543.81 463.04Z"
      id="afmMDyqs3"></path>
    <path
      d="M730.64 463.04C739.96 463.04 747.52 470.6 747.52 479.92C747.52 494.64 747.52 521.92 747.52 536.64C747.52 545.96 739.96 553.52 730.64 553.52C704.8 553.52 644.14 553.52 618.3 553.52C608.98 553.52 601.42 545.96 601.42 536.64C601.42 521.92 601.42 494.64 601.42 479.92C601.42 470.6 608.98 463.04 618.3 463.04C644.14 463.04 704.8 463.04 730.64 463.04Z"
      id="e8uIOZI74"></path>
    <path
      d="M155.57 598.03C164.89 598.03 172.45 605.58 172.45 614.9C172.45 629.62 172.45 656.91 172.45 671.63C172.45 680.95 164.89 688.5 155.57 688.5C129.73 688.5 69.07 688.5 43.22 688.5C33.91 688.5 26.35 680.95 26.35 671.63C26.35 656.91 26.35 629.62 26.35 614.9C26.35 605.58 33.91 598.03 43.22 598.03C69.07 598.03 129.73 598.03 155.57 598.03Z"
      id="hegiP3aJG"></path>
    <path
      d="M343.81 598.03C353.13 598.03 360.69 605.58 360.69 614.9C360.69 629.62 360.69 656.91 360.69 671.63C360.69 680.95 353.13 688.5 343.81 688.5C317.97 688.5 257.31 688.5 231.46 688.5C222.14 688.5 214.59 680.95 214.59 671.63C214.59 656.91 214.59 629.62 214.59 614.9C214.59 605.58 222.14 598.03 231.46 598.03C257.31 598.03 317.97 598.03 343.81 598.03Z"
      id="bbEyzEqVy"></path>
    <path
      d="M155.57 750.11C164.89 750.11 172.45 757.67 172.45 766.99C172.45 781.71 172.45 808.99 172.45 823.71C172.45 833.03 164.89 840.59 155.57 840.59C129.73 840.59 69.07 840.59 43.22 840.59C33.91 840.59 26.35 833.03 26.35 823.71C26.35 808.99 26.35 781.71 26.35 766.99C26.35 757.67 33.91 750.11 43.22 750.11C69.07 750.11 129.73 750.11 155.57 750.11Z"
      id="epxviNxTP"></path>
    <path
      d="M343.81 750.11C353.13 750.11 360.69 757.67 360.69 766.99C360.69 781.71 360.69 808.99 360.69 823.71C360.69 833.03 353.13 840.59 343.81 840.59C317.97 840.59 257.31 840.59 231.46 840.59C222.14 840.59 214.59 833.03 214.59 823.71C214.59 808.99 214.59 781.71 214.59 766.99C214.59 757.67 222.14 750.11 231.46 750.11C257.31 750.11 317.97 750.11 343.81 750.11Z"
      id="b4qc6fjW9J"></path>
    <path
      d="M155.57 899.38C164.89 899.38 172.45 906.94 172.45 916.26C172.45 930.98 172.45 958.26 172.45 972.98C172.45 982.3 164.89 989.86 155.57 989.86C129.73 989.86 69.07 989.86 43.22 989.86C33.91 989.86 26.35 982.3 26.35 972.98C26.35 958.26 26.35 930.98 26.35 916.26C26.35 906.94 33.91 899.38 43.22 899.38C69.07 899.38 129.73 899.38 155.57 899.38Z"
      id="f9v4rEDSb"></path>
    <path
      d="M343.81 899.38C353.13 899.38 360.69 906.94 360.69 916.26C360.69 930.98 360.69 958.26 360.69 972.98C360.69 982.3 353.13 989.86 343.81 989.86C317.97 989.86 257.31 989.86 231.46 989.86C222.14 989.86 214.59 982.3 214.59 972.98C214.59 958.26 214.59 930.98 214.59 916.26C214.59 906.94 222.14 899.38 231.46 899.38C257.31 899.38 317.97 899.38 343.81 899.38Z"
      id="bTPmU6DaQ"></path>
    <path
      d="M537.97 598.03C547.29 598.03 554.85 605.58 554.85 614.9C554.85 629.62 554.85 656.91 554.85 671.63C554.85 680.95 547.29 688.5 537.97 688.5C512.13 688.5 451.47 688.5 425.62 688.5C416.3 688.5 408.75 680.95 408.75 671.63C408.75 656.91 408.75 629.62 408.75 614.9C408.75 605.58 416.3 598.03 425.62 598.03C451.47 598.03 512.13 598.03 537.97 598.03Z"
      id="g13KmwfAGc"></path>
    <path
      d="M724.8 598.03C734.12 598.03 741.68 605.58 741.68 614.9C741.68 629.62 741.68 656.91 741.68 671.63C741.68 680.95 734.12 688.5 724.8 688.5C698.96 688.5 638.3 688.5 612.46 688.5C603.14 688.5 595.58 680.95 595.58 671.63C595.58 656.91 595.58 629.62 595.58 614.9C595.58 605.58 603.14 598.03 612.46 598.03C638.3 598.03 698.96 598.03 724.8 598.03Z"
      id="c2Jg4nfs8"></path>
    <path
      d="M537.97 750.11C547.29 750.11 554.85 757.67 554.85 766.99C554.85 781.71 554.85 808.99 554.85 823.71C554.85 833.03 547.29 840.59 537.97 840.59C512.13 840.59 451.47 840.59 425.62 840.59C416.3 840.59 408.75 833.03 408.75 823.71C408.75 808.99 408.75 781.71 408.75 766.99C408.75 757.67 416.3 750.11 425.62 750.11C451.47 750.11 512.13 750.11 537.97 750.11Z"
      id="b8BkssXVb"></path>
    <path
      d="M724.8 750.11C734.12 750.11 741.68 757.67 741.68 766.99C741.68 781.71 741.68 808.99 741.68 823.71C741.68 833.03 734.12 840.59 724.8 840.59C698.96 840.59 638.3 840.59 612.46 840.59C603.14 840.59 595.58 833.03 595.58 823.71C595.58 808.99 595.58 781.71 595.58 766.99C595.58 757.67 603.14 750.11 612.46 750.11C638.3 750.11 698.96 750.11 724.8 750.11Z"
      id="fTZwwHFBW"></path>
    <path
      d="M537.97 899.38C547.29 899.38 554.85 906.94 554.85 916.26C554.85 930.98 554.85 958.26 554.85 972.98C554.85 982.3 547.29 989.86 537.97 989.86C512.13 989.86 451.47 989.86 425.62 989.86C416.3 989.86 408.75 982.3 408.75 972.98C408.75 958.26 408.75 930.98 408.75 916.26C408.75 906.94 416.3 899.38 425.62 899.38C451.47 899.38 512.13 899.38 537.97 899.38Z"
      id="bs6GMvkx7"></path>
    <path
      d="M724.8 899.38C734.12 899.38 741.68 906.94 741.68 916.26C741.68 930.98 741.68 958.26 741.68 972.98C741.68 982.3 734.12 989.86 724.8 989.86C698.96 989.86 638.3 989.86 612.46 989.86C603.14 989.86 595.58 982.3 595.58 972.98C595.58 958.26 595.58 930.98 595.58 916.26C595.58 906.94 603.14 899.38 612.46 899.38C638.3 899.38 698.96 899.38 724.8 899.38Z"
      id="m4IBFxBDJu"></path>
    <path
      d="M929.65 161.68C938.97 161.68 946.53 169.24 946.53 178.56C946.53 193.28 946.53 220.57 946.53 235.29C946.53 244.61 938.97 252.16 929.65 252.16C903.81 252.16 843.15 252.16 817.3 252.16C807.98 252.16 800.43 244.61 800.43 235.29C800.43 220.57 800.43 193.28 800.43 178.56C800.43 169.24 807.98 161.68 817.3 161.68C843.15 161.68 903.81 161.68 929.65 161.68Z"
      id="auH2sj9CI"></path>
    <path
      d="M1116.48 161.68C1125.8 161.68 1133.36 169.24 1133.36 178.56C1133.36 193.28 1133.36 220.57 1133.36 235.29C1133.36 244.61 1125.8 252.16 1116.48 252.16C1090.64 252.16 1029.98 252.16 1004.13 252.16C994.81 252.16 987.26 244.61 987.26 235.29C987.26 220.57 987.26 193.28 987.26 178.56C987.26 169.24 994.81 161.68 1004.13 161.68C1029.98 161.68 1090.64 161.68 1116.48 161.68Z"
      id="aynL8tYFD"></path>
    <path
      d="M929.65 313.77C938.97 313.77 946.53 321.33 946.53 330.65C946.53 345.37 946.53 372.65 946.53 387.37C946.53 396.69 938.97 404.25 929.65 404.25C903.81 404.25 843.15 404.25 817.3 404.25C807.98 404.25 800.43 396.69 800.43 387.37C800.43 372.65 800.43 345.37 800.43 330.65C800.43 321.33 807.98 313.77 817.3 313.77C843.15 313.77 903.81 313.77 929.65 313.77Z"
      id="e1SRDj6mKe"></path>
    <path
      d="M1116.48 313.77C1125.8 313.77 1133.36 321.33 1133.36 330.65C1133.36 345.37 1133.36 372.65 1133.36 387.37C1133.36 396.69 1125.8 404.25 1116.48 404.25C1090.64 404.25 1029.98 404.25 1004.13 404.25C994.81 404.25 987.26 396.69 987.26 387.37C987.26 372.65 987.26 345.37 987.26 330.65C987.26 321.33 994.81 313.77 1004.13 313.77C1029.98 313.77 1090.64 313.77 1116.48 313.77Z"
      id="c5ikuPAooP"></path>
    <path
      d="M929.65 463.04C938.97 463.04 946.53 470.6 946.53 479.92C946.53 494.64 946.53 521.92 946.53 536.64C946.53 545.96 938.97 553.52 929.65 553.52C903.81 553.52 843.15 553.52 817.3 553.52C807.98 553.52 800.43 545.96 800.43 536.64C800.43 521.92 800.43 494.64 800.43 479.92C800.43 470.6 807.98 463.04 817.3 463.04C843.15 463.04 903.81 463.04 929.65 463.04Z"
      id="az7CPc2LP"></path>
    <path
      d="M1116.48 463.04C1125.8 463.04 1133.36 470.6 1133.36 479.92C1133.36 494.64 1133.36 521.92 1133.36 536.64C1133.36 545.96 1125.8 553.52 1116.48 553.52C1090.64 553.52 1029.98 553.52 1004.13 553.52C994.81 553.52 987.26 545.96 987.26 536.64C987.26 521.92 987.26 494.64 987.26 479.92C987.26 470.6 994.81 463.04 1004.13 463.04C1029.98 463.04 1090.64 463.04 1116.48 463.04Z"
      id="b4MKraTNM"></path>
    <path
      d="M923.81 598.03C933.13 598.03 940.69 605.58 940.69 614.9C940.69 629.62 940.69 656.91 940.69 671.63C940.69 680.95 933.13 688.5 923.81 688.5C897.97 688.5 837.31 688.5 811.46 688.5C802.14 688.5 794.59 680.95 794.59 671.63C794.59 656.91 794.59 629.62 794.59 614.9C794.59 605.58 802.14 598.03 811.46 598.03C837.31 598.03 897.97 598.03 923.81 598.03Z"
      id="d3kjzFaqg"></path>
    <path
      d="M1110.64 598.03C1119.96 598.03 1127.52 605.58 1127.52 614.9C1127.52 629.62 1127.52 656.91 1127.52 671.63C1127.52 680.95 1119.96 688.5 1110.64 688.5C1084.8 688.5 1024.14 688.5 998.29 688.5C988.97 688.5 981.42 680.95 981.42 671.63C981.42 656.91 981.42 629.62 981.42 614.9C981.42 605.58 988.97 598.03 998.29 598.03C1024.14 598.03 1084.8 598.03 1110.64 598.03Z"
      id="afe2ejHPU"></path>
    <path
      d="M923.81 750.11C933.13 750.11 940.69 757.67 940.69 766.99C940.69 781.71 940.69 808.99 940.69 823.71C940.69 833.03 933.13 840.59 923.81 840.59C897.97 840.59 837.31 840.59 811.46 840.59C802.14 840.59 794.59 833.03 794.59 823.71C794.59 808.99 794.59 781.71 794.59 766.99C794.59 757.67 802.14 750.11 811.46 750.11C837.31 750.11 897.97 750.11 923.81 750.11Z"
      id="akftoKD0X"></path>
    <path
      d="M1110.64 750.11C1119.96 750.11 1127.52 757.67 1127.52 766.99C1127.52 781.71 1127.52 808.99 1127.52 823.71C1127.52 833.03 1119.96 840.59 1110.64 840.59C1084.8 840.59 1024.14 840.59 998.29 840.59C988.97 840.59 981.42 833.03 981.42 823.71C981.42 808.99 981.42 781.71 981.42 766.99C981.42 757.67 988.97 750.11 998.29 750.11C1024.14 750.11 1084.8 750.11 1110.64 750.11Z"
      id="dQ9XDZuvm"></path>
    <path
      d="M923.81 899.38C933.13 899.38 940.69 906.94 940.69 916.26C940.69 930.98 940.69 958.26 940.69 972.98C940.69 982.3 933.13 989.86 923.81 989.86C897.97 989.86 837.31 989.86 811.46 989.86C802.14 989.86 794.59 982.3 794.59 972.98C794.59 958.26 794.59 930.98 794.59 916.26C794.59 906.94 802.14 899.38 811.46 899.38C837.31 899.38 897.97 899.38 923.81 899.38Z"
      id="b1vi0AJQIn"></path>
    <path
      d="M1110.64 899.38C1119.96 899.38 1127.52 906.94 1127.52 916.26C1127.52 930.98 1127.52 958.26 1127.52 972.98C1127.52 982.3 1119.96 989.86 1110.64 989.86C1084.8 989.86 1024.14 989.86 998.29 989.86C988.97 989.86 981.42 982.3 981.42 972.98C981.42 958.26 981.42 930.98 981.42 916.26C981.42 906.94 988.97 899.38 998.29 899.38C1024.14 899.38 1084.8 899.38 1110.64 899.38Z"
      id="a13tcMOhhv"></path>
    <path
      d="M1307.16 161.68C1316.48 161.68 1324.04 169.24 1324.04 178.56C1324.04 193.28 1324.04 220.57 1324.04 235.29C1324.04 244.61 1316.48 252.16 1307.16 252.16C1281.32 252.16 1220.66 252.16 1194.81 252.16C1185.49 252.16 1177.94 244.61 1177.94 235.29C1177.94 220.57 1177.94 193.28 1177.94 178.56C1177.94 169.24 1185.49 161.68 1194.81 161.68C1220.66 161.68 1281.32 161.68 1307.16 161.68Z"
      id="a7ovdbnF13"></path>
    <path
      d="M1493.99 161.68C1503.31 161.68 1510.87 169.24 1510.87 178.56C1510.87 193.28 1510.87 220.57 1510.87 235.29C1510.87 244.61 1503.31 252.16 1493.99 252.16C1468.15 252.16 1407.49 252.16 1381.64 252.16C1372.32 252.16 1364.77 244.61 1364.77 235.29C1364.77 220.57 1364.77 193.28 1364.77 178.56C1364.77 169.24 1372.32 161.68 1381.64 161.68C1407.49 161.68 1468.15 161.68 1493.99 161.68Z"
      id="gjBfAMAa6"></path>
    <path
      d="M1307.16 313.77C1316.48 313.77 1324.04 321.33 1324.04 330.65C1324.04 345.37 1324.04 372.65 1324.04 387.37C1324.04 396.69 1316.48 404.25 1307.16 404.25C1281.32 404.25 1220.66 404.25 1194.81 404.25C1185.49 404.25 1177.94 396.69 1177.94 387.37C1177.94 372.65 1177.94 345.37 1177.94 330.65C1177.94 321.33 1185.49 313.77 1194.81 313.77C1220.66 313.77 1281.32 313.77 1307.16 313.77Z"
      id="a7ph4zKI3"></path>
    <path
      d="M1493.99 313.77C1503.31 313.77 1510.87 321.33 1510.87 330.65C1510.87 345.37 1510.87 372.65 1510.87 387.37C1510.87 396.69 1503.31 404.25 1493.99 404.25C1468.15 404.25 1407.49 404.25 1381.64 404.25C1372.32 404.25 1364.77 396.69 1364.77 387.37C1364.77 372.65 1364.77 345.37 1364.77 330.65C1364.77 321.33 1372.32 313.77 1381.64 313.77C1407.49 313.77 1468.15 313.77 1493.99 313.77Z"
      id="bsZemvwum"></path>
    <path
      d="M1307.16 463.04C1316.48 463.04 1324.04 470.6 1324.04 479.92C1324.04 494.64 1324.04 521.92 1324.04 536.64C1324.04 545.96 1316.48 553.52 1307.16 553.52C1281.32 553.52 1220.66 553.52 1194.81 553.52C1185.49 553.52 1177.94 545.96 1177.94 536.64C1177.94 521.92 1177.94 494.64 1177.94 479.92C1177.94 470.6 1185.49 463.04 1194.81 463.04C1220.66 463.04 1281.32 463.04 1307.16 463.04Z"
      id="aux1XSCRu"></path>
    <path
      d="M1493.99 463.04C1503.31 463.04 1510.87 470.6 1510.87 479.92C1510.87 494.64 1510.87 521.92 1510.87 536.64C1510.87 545.96 1503.31 553.52 1493.99 553.52C1468.15 553.52 1407.49 553.52 1381.64 553.52C1372.32 553.52 1364.77 545.96 1364.77 536.64C1364.77 521.92 1364.77 494.64 1364.77 479.92C1364.77 470.6 1372.32 463.04 1381.64 463.04C1407.49 463.04 1468.15 463.04 1493.99 463.04Z"
      id="a149iXGEiJ"></path>
    <path
      d="M1301.32 598.03C1310.64 598.03 1318.2 605.58 1318.2 614.9C1318.2 629.62 1318.2 656.91 1318.2 671.63C1318.2 680.95 1310.64 688.5 1301.32 688.5C1275.48 688.5 1214.82 688.5 1188.97 688.5C1179.65 688.5 1172.1 680.95 1172.1 671.63C1172.1 656.91 1172.1 629.62 1172.1 614.9C1172.1 605.58 1179.65 598.03 1188.97 598.03C1214.82 598.03 1275.48 598.03 1301.32 598.03Z"
      id="a2TNCxdb2L"></path>
    <path
      d="M1488.15 598.03C1497.47 598.03 1505.03 605.58 1505.03 614.9C1505.03 629.62 1505.03 656.91 1505.03 671.63C1505.03 680.95 1497.47 688.5 1488.15 688.5C1462.31 688.5 1401.65 688.5 1375.8 688.5C1366.48 688.5 1358.93 680.95 1358.93 671.63C1358.93 656.91 1358.93 629.62 1358.93 614.9C1358.93 605.58 1366.48 598.03 1375.8 598.03C1401.65 598.03 1462.31 598.03 1488.15 598.03Z"
      id="c7FmN43KCS"></path>
    <path
      d="M1301.32 750.11C1310.64 750.11 1318.2 757.67 1318.2 766.99C1318.2 781.71 1318.2 808.99 1318.2 823.71C1318.2 833.03 1310.64 840.59 1301.32 840.59C1275.48 840.59 1214.82 840.59 1188.97 840.59C1179.65 840.59 1172.1 833.03 1172.1 823.71C1172.1 808.99 1172.1 781.71 1172.1 766.99C1172.1 757.67 1179.65 750.11 1188.97 750.11C1214.82 750.11 1275.48 750.11 1301.32 750.11Z"
      id="c5a3LPhq9R"></path>
    <path
      d="M1488.15 750.11C1497.47 750.11 1505.03 757.67 1505.03 766.99C1505.03 781.71 1505.03 808.99 1505.03 823.71C1505.03 833.03 1497.47 840.59 1488.15 840.59C1462.31 840.59 1401.65 840.59 1375.8 840.59C1366.48 840.59 1358.93 833.03 1358.93 823.71C1358.93 808.99 1358.93 781.71 1358.93 766.99C1358.93 757.67 1366.48 750.11 1375.8 750.11C1401.65 750.11 1462.31 750.11 1488.15 750.11Z"
      id="b14bqsIBsx"></path>
    <path
      d="M1301.32 899.38C1310.64 899.38 1318.2 906.94 1318.2 916.26C1318.2 930.98 1318.2 958.26 1318.2 972.98C1318.2 982.3 1310.64 989.86 1301.32 989.86C1275.48 989.86 1214.82 989.86 1188.97 989.86C1179.65 989.86 1172.1 982.3 1172.1 972.98C1172.1 958.26 1172.1 930.98 1172.1 916.26C1172.1 906.94 1179.65 899.38 1188.97 899.38C1214.82 899.38 1275.48 899.38 1301.32 899.38Z"
      id="a2hyUHkJj"></path>
    <path
      d="M1488.15 899.38C1497.47 899.38 1505.03 906.94 1505.03 916.26C1505.03 930.98 1505.03 958.26 1505.03 972.98C1505.03 982.3 1497.47 989.86 1488.15 989.86C1462.31 989.86 1401.65 989.86 1375.8 989.86C1366.48 989.86 1358.93 982.3 1358.93 972.98C1358.93 958.26 1358.93 930.98 1358.93 916.26C1358.93 906.94 1366.48 899.38 1375.8 899.38C1401.65 899.38 1462.31 899.38 1488.15 899.38Z"
      id="bm4cs6qJq"></path>
    <path
      d="M1689.96 161.68C1699.28 161.68 1706.83 169.24 1706.83 178.56C1706.83 193.28 1706.83 220.57 1706.83 235.29C1706.83 244.61 1699.28 252.16 1689.96 252.16C1664.11 252.16 1603.45 252.16 1577.61 252.16C1568.29 252.16 1560.73 244.61 1560.73 235.29C1560.73 220.57 1560.73 193.28 1560.73 178.56C1560.73 169.24 1568.29 161.68 1577.61 161.68C1603.45 161.68 1664.11 161.68 1689.96 161.68Z"
      id="aCFSz4AxF"></path>
    <path
      d="M1876.79 161.68C1886.11 161.68 1893.66 169.24 1893.66 178.56C1893.66 193.28 1893.66 220.57 1893.66 235.29C1893.66 244.61 1886.11 252.16 1876.79 252.16C1850.94 252.16 1790.28 252.16 1764.44 252.16C1755.12 252.16 1747.56 244.61 1747.56 235.29C1747.56 220.57 1747.56 193.28 1747.56 178.56C1747.56 169.24 1755.12 161.68 1764.44 161.68C1790.28 161.68 1850.94 161.68 1876.79 161.68Z"
      id="cavZ5Xe1Y"></path>
    <path
      d="M1689.96 313.77C1699.28 313.77 1706.83 321.33 1706.83 330.65C1706.83 345.37 1706.83 372.65 1706.83 387.37C1706.83 396.69 1699.28 404.25 1689.96 404.25C1664.11 404.25 1603.45 404.25 1577.61 404.25C1568.29 404.25 1560.73 396.69 1560.73 387.37C1560.73 372.65 1560.73 345.37 1560.73 330.65C1560.73 321.33 1568.29 313.77 1577.61 313.77C1603.45 313.77 1664.11 313.77 1689.96 313.77Z"
      id="d2yvXwFl2V"></path>
    <path
      d="M1876.79 313.77C1886.11 313.77 1893.66 321.33 1893.66 330.65C1893.66 345.37 1893.66 372.65 1893.66 387.37C1893.66 396.69 1886.11 404.25 1876.79 404.25C1850.94 404.25 1790.28 404.25 1764.44 404.25C1755.12 404.25 1747.56 396.69 1747.56 387.37C1747.56 372.65 1747.56 345.37 1747.56 330.65C1747.56 321.33 1755.12 313.77 1764.44 313.77C1790.28 313.77 1850.94 313.77 1876.79 313.77Z"
      id="b1759u3tGp"></path>
    <path
      d="M1689.96 463.04C1699.28 463.04 1706.83 470.6 1706.83 479.92C1706.83 494.64 1706.83 521.92 1706.83 536.64C1706.83 545.96 1699.28 553.52 1689.96 553.52C1664.11 553.52 1603.45 553.52 1577.61 553.52C1568.29 553.52 1560.73 545.96 1560.73 536.64C1560.73 521.92 1560.73 494.64 1560.73 479.92C1560.73 470.6 1568.29 463.04 1577.61 463.04C1603.45 463.04 1664.11 463.04 1689.96 463.04Z"
      id="c1Iz8jZ8zx"></path>
    <path
      d="M1876.79 463.04C1886.11 463.04 1893.66 470.6 1893.66 479.92C1893.66 494.64 1893.66 521.92 1893.66 536.64C1893.66 545.96 1886.11 553.52 1876.79 553.52C1850.94 553.52 1790.28 553.52 1764.44 553.52C1755.12 553.52 1747.56 545.96 1747.56 536.64C1747.56 521.92 1747.56 494.64 1747.56 479.92C1747.56 470.6 1755.12 463.04 1764.44 463.04C1790.28 463.04 1850.94 463.04 1876.79 463.04Z"
      id="a34zIMOtB5"></path>
    <path
      d="M1684.12 598.03C1693.44 598.03 1700.99 605.58 1700.99 614.9C1700.99 629.62 1700.99 656.91 1700.99 671.63C1700.99 680.95 1693.44 688.5 1684.12 688.5C1658.27 688.5 1597.61 688.5 1571.77 688.5C1562.45 688.5 1554.89 680.95 1554.89 671.63C1554.89 656.91 1554.89 629.62 1554.89 614.9C1554.89 605.58 1562.45 598.03 1571.77 598.03C1597.61 598.03 1658.27 598.03 1684.12 598.03Z"
      id="b5PiHsJj1"></path>
    <path
      d="M1870.95 598.03C1880.27 598.03 1887.82 605.58 1887.82 614.9C1887.82 629.62 1887.82 656.91 1887.82 671.63C1887.82 680.95 1880.27 688.5 1870.95 688.5C1845.1 688.5 1784.44 688.5 1758.6 688.5C1749.28 688.5 1741.72 680.95 1741.72 671.63C1741.72 656.91 1741.72 629.62 1741.72 614.9C1741.72 605.58 1749.28 598.03 1758.6 598.03C1784.44 598.03 1845.1 598.03 1870.95 598.03Z"
      id="b2zPeocvza"></path>
    <path
      d="M1684.12 750.11C1693.44 750.11 1700.99 757.67 1700.99 766.99C1700.99 781.71 1700.99 808.99 1700.99 823.71C1700.99 833.03 1693.44 840.59 1684.12 840.59C1658.27 840.59 1597.61 840.59 1571.77 840.59C1562.45 840.59 1554.89 833.03 1554.89 823.71C1554.89 808.99 1554.89 781.71 1554.89 766.99C1554.89 757.67 1562.45 750.11 1571.77 750.11C1597.61 750.11 1658.27 750.11 1684.12 750.11Z"
      id="a2WtCQUX8"></path>
    <path
      d="M1870.95 750.11C1880.27 750.11 1887.82 757.67 1887.82 766.99C1887.82 781.71 1887.82 808.99 1887.82 823.71C1887.82 833.03 1880.27 840.59 1870.95 840.59C1845.1 840.59 1784.44 840.59 1758.6 840.59C1749.28 840.59 1741.72 833.03 1741.72 823.71C1741.72 808.99 1741.72 781.71 1741.72 766.99C1741.72 757.67 1749.28 750.11 1758.6 750.11C1784.44 750.11 1845.1 750.11 1870.95 750.11Z"
      id="c1rWZYqm6J"></path>
    <path
      d="M1684.12 899.38C1693.44 899.38 1700.99 906.94 1700.99 916.26C1700.99 930.98 1700.99 958.26 1700.99 972.98C1700.99 982.3 1693.44 989.86 1684.12 989.86C1658.27 989.86 1597.61 989.86 1571.77 989.86C1562.45 989.86 1554.89 982.3 1554.89 972.98C1554.89 958.26 1554.89 930.98 1554.89 916.26C1554.89 906.94 1562.45 899.38 1571.77 899.38C1597.61 899.38 1658.27 899.38 1684.12 899.38Z"
      id="a21NdDIGZ8"></path>
    <path
      d="M1870.95 899.38C1880.27 899.38 1887.82 906.94 1887.82 916.26C1887.82 930.98 1887.82 958.26 1887.82 972.98C1887.82 982.3 1880.27 989.86 1870.95 989.86C1845.1 989.86 1784.44 989.86 1758.6 989.86C1749.28 989.86 1741.72 982.3 1741.72 972.98C1741.72 958.26 1741.72 930.98 1741.72 916.26C1741.72 906.94 1749.28 899.38 1758.6 899.38C1784.44 899.38 1845.1 899.38 1870.95 899.38Z"
      id="exopfUFTD"></path>
    <text
      id="a2kOgEncgO"
      x="68.45"
      y="196.34"
      font-size="14"
      font-family="Open Sans"
      font-weight="normal"
      font-style="normal"
      letter-spacing="0"
      alignment-baseline="before-edge"
      transform="matrix(1 0 0 1 0 0)"
      style="line-height:100%"
      xml:space="preserve"
      dominant-baseline="text-before-edge">
      <tspan x="68.45" dy="0em" alignment-baseline="before-edge" dominant-baseline="text-before-edge" text-anchor="start">Text</tspan>
    </text>
  </defs>
  <g>
    <g>
      <g>
        <use xlink:href="#a1QbnaxYSM" opacity="1" fill="#d9e5cb" fill-opacity="1"></use>
        <g>
          <use xlink:href="#a1QbnaxYSM" opacity="1" fill-opacity="0" stroke="#000000" stroke-width="2" stroke-opacity="1"></use>
        </g>
      </g>
      <g>
        <use xlink:href="#bPsKdGxWH" opacity="1" fill="#d9e5cb" fill-opacity="1"></use>
        <g>
          <use xlink:href="#bPsKdGxWH" opacity="1" fill-opacity="0" stroke="#000000" stroke-width="2" stroke-opacity="1"></use>
        </g>
      </g>
      <g>
        <use xlink:href="#efnigr5Lo" opacity="1" fill="#d9e5cb" fill-opacity="1"></use>
        <g>
          <use xlink:href="#efnigr5Lo" opacity="1" fill-opacity="0" stroke="#000000" stroke-width="2" stroke-opacity="1"></use>
        </g>
      </g>
      <g>
        <use xlink:href="#a1eG49RYRo" opacity="1" fill="#d9e5cb" fill-opacity="1"></use>
        <g>
          <use xlink:href="#a1eG49RYRo" opacity="1" fill-opacity="0" stroke="#000000" stroke-width="2" stroke-opacity="1"></use>
        </g>
      </g>
      <g>
        <use xlink:href="#asQXIiV94" opacity="1" fill="#d9e5cb" fill-opacity="1"></use>
        <g>
          <use xlink:href="#asQXIiV94" opacity="1" fill-opacity="0" stroke="#000000" stroke-width="2" stroke-opacity="1"></use>
        </g>
      </g>
      <g>
        <use xlink:href="#b2LGujqYPf" opacity="1" fill="#ffffff" fill-opacity="1"></use>
        <g>
          <use xlink:href="#b2LGujqYPf" opacity="1" fill-opacity="0" stroke="#000000" stroke-width="2" stroke-opacity="1"></use>
        </g>
      </g>
      <g>
        <use xlink:href="#iK7y8KIMG" opacity="1" fill="#ffffff" fill-opacity="1"></use>
        <g>
          <use xlink:href="#iK7y8KIMG" opacity="1" fill-opacity="0" stroke="#000000" stroke-width="2" stroke-opacity="1"></use>
        </g>
      </g>
      <g>
        <use xlink:href="#b5MTx3d2J" opacity="1" fill="#ffffff" fill-opacity="1"></use>
        <g>
          <use xlink:href="#b5MTx3d2J" opacity="1" fill-opacity="0" stroke="#000000" stroke-width="2" stroke-opacity="1"></use>
        </g>
      </g>
      <g>
        <use xlink:href="#a2DWjXYvLj" opacity="1" fill="#ffffff" fill-opacity="1"></use>
        <g>
          <use xlink:href="#a2DWjXYvLj" opacity="1" fill-opacity="0" stroke="#000000" stroke-width="2" stroke-opacity="1"></use>
        </g>
      </g>
      <g>
        <use xlink:href="#b6ajXBYNqP" opacity="1" fill="#ffffff" fill-opacity="1"></use>
        <g>
          <use xlink:href="#b6ajXBYNqP" opacity="1" fill-opacity="0" stroke="#000000" stroke-width="2" stroke-opacity="1"></use>
        </g>
      </g>
      <g>
        <use xlink:href="#gb6uh7x8" opacity="1" fill="#faffc8" fill-opacity="1"></use>
      </g>
      <g>
        <use xlink:href="#e3PqIveGA" opacity="1" fill="#faffc8" fill-opacity="1"></use>
      </g>
      <g>
        <use xlink:href="#hQ1ywzgmP" opacity="1" fill="#faffc8" fill-opacity="1"></use>
      </g>
      <g>
        <use xlink:href="#a1r8QY4m4I" opacity="1" fill="#faffc8" fill-opacity="1"></use>
      </g>
      <g>
        <use xlink:href="#a11yJ9QPG" opacity="1" fill="#faffc8" fill-opacity="1"></use>
      </g>
      <g>
        <use xlink:href="#bnFMeUqLt" opacity="1" fill="#faffc8" fill-opacity="1"></use>
      </g>
      <g>
        <use xlink:href="#c17YepB3oi" opacity="1" fill="#faffc8" fill-opacity="1"></use>
      </g>
      <g>
        <use xlink:href="#b5iwALQyJY" opacity="1" fill="#faffc8" fill-opacity="1"></use>
      </g>
      <g>
        <use xlink:href="#a18un7aEEo" opacity="1" fill="#faffc8" fill-opacity="1"></use>
      </g>
      <g>
        <use xlink:href="#anuKibB0G" opacity="1" fill="#faffc8" fill-opacity="1"></use>
      </g>
      <g>
        <use xlink:href="#afmMDyqs3" opacity="1" fill="#faffc8" fill-opacity="1"></use>
      </g>
      <g>
        <use xlink:href="#e8uIOZI74" opacity="1" fill="#faffc8" fill-opacity="1"></use>
      </g>
      <g>
        <use xlink:href="#hegiP3aJG" opacity="1" fill="#faffc8" fill-opacity="1"></use>
      </g>
      <g>
        <use xlink:href="#bbEyzEqVy" opacity="1" fill="#faffc8" fill-opacity="1"></use>
      </g>
      <g>
        <use xlink:href="#epxviNxTP" opacity="1" fill="#faffc8" fill-opacity="1"></use>
      </g>
      <g>
        <use xlink:href="#b4qc6fjW9J" opacity="1" fill="#faffc8" fill-opacity="1"></use>
      </g>
      <g>
        <use xlink:href="#f9v4rEDSb" opacity="1" fill="#faffc8" fill-opacity="1"></use>
      </g>
      <g>
        <use xlink:href="#bTPmU6DaQ" opacity="1" fill="#faffc8" fill-opacity="1"></use>
      </g>
      <g>
        <use xlink:href="#g13KmwfAGc" opacity="1" fill="#faffc8" fill-opacity="1"></use>
      </g>
      <g>
        <use xlink:href="#c2Jg4nfs8" opacity="1" fill="#faffc8" fill-opacity="1"></use>
      </g>
      <g>
        <use xlink:href="#b8BkssXVb" opacity="1" fill="#faffc8" fill-opacity="1"></use>
      </g>
      <g>
        <use xlink:href="#fTZwwHFBW" opacity="1" fill="#faffc8" fill-opacity="1"></use>
      </g>
      <g>
        <use xlink:href="#bs6GMvkx7" opacity="1" fill="#faffc8" fill-opacity="1"></use>
      </g>
      <g>
        <use xlink:href="#m4IBFxBDJu" opacity="1" fill="#faffc8" fill-opacity="1"></use>
      </g>
      <g>
        <use xlink:href="#auH2sj9CI" opacity="1" fill="#faffc8" fill-opacity="1"></use>
      </g>
      <g>
        <use xlink:href="#aynL8tYFD" opacity="1" fill="#faffc8" fill-opacity="1"></use>
      </g>
      <g>
        <use xlink:href="#e1SRDj6mKe" opacity="1" fill="#faffc8" fill-opacity="1"></use>
      </g>
      <g>
        <use xlink:href="#c5ikuPAooP" opacity="1" fill="#faffc8" fill-opacity="1"></use>
      </g>
      <g>
        <use xlink:href="#az7CPc2LP" opacity="1" fill="#faffc8" fill-opacity="1"></use>
      </g>
      <g>
        <use xlink:href="#b4MKraTNM" opacity="1" fill="#faffc8" fill-opacity="1"></use>
      </g>
      <g>
        <use xlink:href="#d3kjzFaqg" opacity="1" fill="#faffc8" fill-opacity="1"></use>
      </g>
      <g>
        <use xlink:href="#afe2ejHPU" opacity="1" fill="#faffc8" fill-opacity="1"></use>
      </g>
      <g>
        <use xlink:href="#akftoKD0X" opacity="1" fill="#faffc8" fill-opacity="1"></use>
      </g>
      <g>
        <use xlink:href="#dQ9XDZuvm" opacity="1" fill="#faffc8" fill-opacity="1"></use>
      </g>
      <g>
        <use xlink:href="#b1vi0AJQIn" opacity="1" fill="#faffc8" fill-opacity="1"></use>
      </g>
      <g>
        <use xlink:href="#a13tcMOhhv" opacity="1" fill="#faffc8" fill-opacity="1"></use>
      </g>
      <g>
        <use xlink:href="#a7ovdbnF13" opacity="1" fill="#faffc8" fill-opacity="1"></use>
      </g>
      <g>
        <use xlink:href="#gjBfAMAa6" opacity="1" fill="#faffc8" fill-opacity="1"></use>
      </g>
      <g>
        <use xlink:href="#a7ph4zKI3" opacity="1" fill="#faffc8" fill-opacity="1"></use>
      </g>
      <g>
        <use xlink:href="#bsZemvwum" opacity="1" fill="#faffc8" fill-opacity="1"></use>
      </g>
      <g>
        <use xlink:href="#aux1XSCRu" opacity="1" fill="#faffc8" fill-opacity="1"></use>
      </g>
      <g>
        <use xlink:href="#a149iXGEiJ" opacity="1" fill="#faffc8" fill-opacity="1"></use>
      </g>
      <g>
        <use xlink:href="#a2TNCxdb2L" opacity="1" fill="#faffc8" fill-opacity="1"></use>
      </g>
      <g>
        <use xlink:href="#c7FmN43KCS" opacity="1" fill="#faffc8" fill-opacity="1"></use>
      </g>
      <g>
        <use xlink:href="#c5a3LPhq9R" opacity="1" fill="#faffc8" fill-opacity="1"></use>
      </g>
      <g>
        <use xlink:href="#b14bqsIBsx" opacity="1" fill="#faffc8" fill-opacity="1"></use>
      </g>
      <g>
        <use xlink:href="#a2hyUHkJj" opacity="1" fill="#faffc8" fill-opacity="1"></use>
      </g>
      <g>
        <use xlink:href="#bm4cs6qJq" opacity="1" fill="#faffc8" fill-opacity="1"></use>
      </g>
      <g>
        <use xlink:href="#aCFSz4AxF" opacity="1" fill="#faffc8" fill-opacity="1"></use>
      </g>
      <g>
        <use xlink:href="#cavZ5Xe1Y" opacity="1" fill="#faffc8" fill-opacity="1"></use>
      </g>
      <g>
        <use xlink:href="#d2yvXwFl2V" opacity="1" fill="#faffc8" fill-opacity="1"></use>
      </g>
      <g>
        <use xlink:href="#b1759u3tGp" opacity="1" fill="#faffc8" fill-opacity="1"></use>
      </g>
      <g>
        <use xlink:href="#c1Iz8jZ8zx" opacity="1" fill="#faffc8" fill-opacity="1"></use>
      </g>
      <g>
        <use xlink:href="#a34zIMOtB5" opacity="1" fill="#faffc8" fill-opacity="1"></use>
      </g>
      <g>
        <use xlink:href="#b5PiHsJj1" opacity="1" fill="#faffc8" fill-opacity="1"></use>
      </g>
      <g>
        <use xlink:href="#b2zPeocvza" opacity="1" fill="#faffc8" fill-opacity="1"></use>
      </g>
      <g>
        <use xlink:href="#a2WtCQUX8" opacity="1" fill="#faffc8" fill-opacity="1"></use>
      </g>
      <g>
        <use xlink:href="#c1rWZYqm6J" opacity="1" fill="#faffc8" fill-opacity="1"></use>
      </g>
      <g>
        <use xlink:href="#a21NdDIGZ8" opacity="1" fill="#faffc8" fill-opacity="1"></use>
      </g>
      <g>
        <use xlink:href="#exopfUFTD" opacity="1" fill="#faffc8" fill-opacity="1"></use>
      </g>
      <g id="allyZeFke">
        <use xlink:href="#a2kOgEncgO" opacity="1" fill="#fff2c8" fill-opacity="1"></use>
      </g>
    </g>
  </g>
</svg>
